PS_ngait_og_ss9_kinetics.mot
version=1
nRows=16
nColumns=28
inDegrees=yes
endheader
time	1_ground_force_vx	1_ground_force_vy	1_ground_force_vz	1_ground_force_px	1_ground_force_py	1_ground_force_pz	2_ground_force_vx	2_ground_force_vy	2_ground_force_vz	2_ground_force_px	2_ground_force_py	2_ground_force_pz	3_ground_force_vx	3_ground_force_vy	3_ground_force_vz	3_ground_force_px	3_ground_force_py	3_ground_force_pz	1_ground_torque_x	1_ground_torque_y	1_ground_torque_z	2_ground_torque_x	2_ground_torque_y	2_ground_torque_z	3_ground_torque_x	3_ground_torque_y	3_ground_torque_z
  0.81250000	  0.00000000	  0.00000000	  0.00000000	  0.30000000	 -0.00600000	  0.20000000	  0.00000000	  0.00000000	  0.00000000	 -0.30000000	 -0.00600000	  0.20000000	-34.35861817	674.04413234	-45.73725375	  0.84189201	 -0.00600000	  0.26870233	  0.00000000	  0.00000000	  0.00000000	  0.00000000	  0.00000000	  0.00000000	  0.00000000	 -3.75548235	  0.00000000
  0.81333333	  0.00000000	  0.00000000	  0.00000000	  0.30000000	 -0.00600000	  0.20000000	  0.00000000	  0.00000000	  0.00000000	 -0.30000000	 -0.00600000	  0.20000000	-33.97138026	673.44885386	-45.56292083	  0.84209454	 -0.00600000	  0.26868676	  0.00000000	  0.00000000	  0.00000000	  0.00000000	  0.00000000	  0.00000000	  0.00000000	 -3.76630444	  0.00000000
  0.81416667	  0.00000000	  0.00000000	  0.00000000	  0.30000000	 -0.00600000	  0.20000000	  0.00000000	  0.00000000	  0.00000000	 -0.30000000	 -0.00600000	  0.20000000	-33.57278969	672.86402241	-45.38576490	  0.84229108	 -0.00600000	  0.26868138	  0.00000000	  0.00000000	  0.00000000	  0.00000000	  0.00000000	  0.00000000	  0.00000000	 -3.77564986	  0.00000000
  0.81500000	  0.00000000	  0.00000000	  0.00000000	  0.30000000	 -0.00600000	  0.20000000	  0.00000000	  0.00000000	  0.00000000	 -0.30000000	 -0.00600000	  0.20000000	-33.16451740	672.28929721	-45.20597830	  0.84248179	 -0.00600000	  0.26868768	  0.00000000	  0.00000000	  0.00000000	  0.00000000	  0.00000000	  0.00000000	  0.00000000	 -3.78329980	  0.00000000
  0.81583333	  0.00000000	  0.00000000	  0.00000000	  0.30000000	 -0.00600000	  0.20000000	  0.00000000	  0.00000000	  0.00000000	 -0.30000000	 -0.00600000	  0.20000000	-32.74914326	671.72455918	-45.02405918	  0.84266674	 -0.00600000	  0.26870520	  0.00000000	  0.00000000	  0.00000000	  0.00000000	  0.00000000	  0.00000000	  0.00000000	 -3.78939241	  0.00000000
  0.81666667	  0.00000000	  0.00000000	  0.00000000	  0.30000000	 -0.00600000	  0.20000000	  0.00000000	  0.00000000	  0.00000000	 -0.30000000	 -0.00600000	  0.20000000	-32.32961441	671.17066978	-44.84146258	  0.84284613	 -0.00600000	  0.26873140	  0.00000000	  0.00000000	  0.00000000	  0.00000000	  0.00000000	  0.00000000	  0.00000000	 -3.79414232	  0.00000000
  0.81750000	  0.00000000	  0.00000000	  0.00000000	  0.30000000	 -0.00600000	  0.20000000	  0.00000000	  0.00000000	  0.00000000	 -0.30000000	 -0.00600000	  0.20000000	-31.90897640	670.63182123	-44.66063168	  0.84302029	 -0.00600000	  0.26876253	  0.00000000	  0.00000000	  0.00000000	  0.00000000	  0.00000000	  0.00000000	  0.00000000	 -3.79769941	  0.00000000
  0.81833333	  0.00000000	  0.00000000	  0.00000000	  0.30000000	 -0.00600000	  0.20000000	  0.00000000	  0.00000000	  0.00000000	 -0.30000000	 -0.00600000	  0.20000000	-31.49011782	670.11584480	-44.48465449	  0.84319002	 -0.00600000	  0.26879460	  0.00000000	  0.00000000	  0.00000000	  0.00000000	  0.00000000	  0.00000000	  0.00000000	 -3.80011471	  0.00000000
  0.81916667	  0.00000000	  0.00000000	  0.00000000	  0.30000000	 -0.00600000	  0.20000000	  0.00000000	  0.00000000	  0.00000000	 -0.30000000	 -0.00600000	  0.20000000	-31.07558131	669.63058690	-44.31710120	  0.84335677	 -0.00600000	  0.26882430	  0.00000000	  0.00000000	  0.00000000	  0.00000000	  0.00000000	  0.00000000	  0.00000000	 -3.80137043	  0.00000000
  0.82000000	  0.00000000	  0.00000000	  0.00000000	  0.30000000	 -0.00600000	  0.20000000	  0.00000000	  0.00000000	  0.00000000	 -0.30000000	 -0.00600000	  0.20000000	-30.66736934	669.18083560	-44.16134470	  0.84352272	 -0.00600000	  0.26884937	  0.00000000	  0.00000000	  0.00000000	  0.00000000	  0.00000000	  0.00000000	  0.00000000	 -3.80158120	  0.00000000
  0.82083333	  0.00000000	  0.00000000	  0.00000000	  0.30000000	 -0.00600000	  0.20000000	  0.00000000	  0.00000000	  0.00000000	 -0.30000000	 -0.00600000	  0.20000000	-30.26642402	668.76815274	-44.01872816	  0.84369058	 -0.00600000	  0.26886830	  0.00000000	  0.00000000	  0.00000000	  0.00000000	  0.00000000	  0.00000000	  0.00000000	 -3.80111010	  0.00000000
  0.82166667	  0.00000000	  0.00000000	  0.00000000	  0.30000000	 -0.00600000	  0.20000000	  0.00000000	  0.00000000	  0.00000000	 -0.30000000	 -0.00600000	  0.20000000	-29.87215050	668.39097021	-43.88757282	  0.84386309	 -0.00600000	  0.26888038	  0.00000000	  0.00000000	  0.00000000	  0.00000000	  0.00000000	  0.00000000	  0.00000000	 -3.80028579	  0.00000000
  0.82250000	  0.00000000	  0.00000000	  0.00000000	  0.30000000	 -0.00600000	  0.20000000	  0.00000000	  0.00000000	  0.00000000	 -0.30000000	 -0.00600000	  0.20000000	-29.48285694	668.04444470	-43.76483625	  0.84404151	 -0.00600000	  0.26888612	  0.00000000	  0.00000000	  0.00000000	  0.00000000	  0.00000000	  0.00000000	  0.00000000	 -3.79906128	  0.00000000
  0.82333333	  0.00000000	  0.00000000	  0.00000000	  0.30000000	 -0.00600000	  0.20000000	  0.00000000	  0.00000000	  0.00000000	 -0.30000000	 -0.00600000	  0.20000000	-29.09686229	667.72220239	-43.64817317	  0.84422433	 -0.00600000	  0.26888721	  0.00000000	  0.00000000	  0.00000000	  0.00000000	  0.00000000	  0.00000000	  0.00000000	 -3.79704038	  0.00000000
  0.82416667	  0.00000000	  0.00000000	  0.00000000	  0.30000000	 -0.00600000	  0.20000000	  0.00000000	  0.00000000	  0.00000000	 -0.30000000	 -0.00600000	  0.20000000	-28.71308741	667.41923633	-43.53627905	  0.84440785	 -0.00600000	  0.26888578	  0.00000000	  0.00000000	  0.00000000	  0.00000000	  0.00000000	  0.00000000	  0.00000000	 -3.79383325	  0.00000000
  0.82500000	  0.00000000	  0.00000000	  0.00000000	  0.30000000	 -0.00600000	  0.20000000	  0.00000000	  0.00000000	  0.00000000	 -0.30000000	 -0.00600000	  0.20000000	-28.33075907	667.13247075	-43.42864949	  0.84458809	 -0.00600000	  0.26888385	  0.00000000	  0.00000000	  0.00000000	  0.00000000	  0.00000000	  0.00000000	  0.00000000	 -3.78935365	  0.00000000
